<svg width="20" height="20" viewBox="0 0 20 20" fill="none" xmlns="http://www.w3.org/2000/svg">
<path fill-rule="evenodd" clip-rule="evenodd" d="M10 0.677734C9.08634 0.677734 8.19014 0.928083 7.40875 1.40159L2.40875 4.43159C1.67349 4.87714 1.06552 5.50477 0.643585 6.25383C0.221649 7.00289 -1.43044e-05 7.8481 6.92125e-10 8.70782V14.9998C6.92125e-10 16.3259 0.526784 17.5977 1.46447 18.5354C2.40215 19.473 3.67392 19.9998 5 19.9998H15C16.3261 19.9998 17.5978 19.473 18.5355 18.5354C19.4732 17.5977 20 16.3259 20 14.9998V8.70682C19.9998 7.8473 19.778 7.00212 19.3561 6.25329C18.9342 5.50446 18.3263 4.87704 17.5913 4.4316L12.5913 1.4016C11.8099 0.928091 10.9137 0.677734 10 0.677734ZM8.44526 3.11204C8.91409 2.82794 9.45181 2.67773 10 2.67773C10.5482 2.67773 11.0859 2.82794 11.5547 3.11204L16.5547 6.14204C16.9958 6.40931 17.3605 6.78577 17.6137 7.23507C17.8668 7.6843 17.9998 8.19119 18 8.70682V14.9998C18 15.7955 17.6839 16.5585 17.1213 17.1211C16.5587 17.6838 15.7956 17.9998 15 17.9998H14V14.9998C14 13.939 13.5786 12.9215 12.8284 12.1714C12.0783 11.4212 11.0609 10.9998 10 10.9998C8.93913 10.9998 7.92172 11.4212 7.17157 12.1714C6.42143 12.9215 6 13.939 6 14.9998V17.9998H5C4.20435 17.9998 3.44129 17.6838 2.87868 17.1211C2.31607 16.5585 2 15.7955 2 14.9998V8.70782C1.99999 8.19198 2.13299 7.68483 2.38615 7.23539C2.63931 6.78595 3.00409 6.40938 3.44525 6.14205L8.44526 3.11204ZM11.4142 13.5856C11.7893 13.9607 12 14.4694 12 14.9998V17.9998H8V14.9998C8 14.4694 8.21071 13.9607 8.58578 13.5856C8.96086 13.2105 9.46956 12.9998 10 12.9998C10.5304 12.9998 11.0391 13.2105 11.4142 13.5856Z" fill="white"/>
</svg>
